<?xml version="1.0" encoding="utf-8"?>
<!-- Generator: Adobe Illustrator 23.0.5, SVG Export Plug-In . SVG Version: 6.00 Build 0)  -->
<svg version="1.1" id="Layer_1" xmlns="http://www.w3.org/2000/svg" xmlns:xlink="http://www.w3.org/1999/xlink" x="0px" y="0px"
	 viewBox="0 0 580.95 400" style="enable-background:new 0 0 580.95 400;" xml:space="preserve">
<style type="text/css">
	.st0{fill:#719968;}
	.st1{fill:#507849;}
	.st2{fill:#A0463A;}
	.st3{fill:#B75542;}
	.st4{fill:#E8821C;}
	.st5{fill:#FFA143;}
	.st6{fill:#F78F77;}
	.st7{fill:#476B3F;}
	.st8{fill:#FFFFFF;}
	.st9{fill:#F7C537;}
	.st10{fill:#F2513B;}
	.st11{fill:#FCBC49;}
	.st12{fill:#FFB255;}
	.st13{fill:#B56A4D;}
	.st14{fill:#994239;}
	.st15{fill:#D6B9AA;}
	.st16{fill:#F4E0D7;}
	.st17{fill:#BF9E90;}
	.st18{fill:#46467F;}
	.st19{fill:#DD4536;}
	.st20{fill:#FFBF69;}
	.st21{fill:#FFC07B;}
</style>
<g>
	<g>
		<path class="st0" d="M416.74,305.9c0,0-12.13,4.09-28.93-7.56c-16.8-11.65,1.71-27.7,7.53-30.85c5.82-3.15,10.78-3.45,10.78-3.45
			s-6.21,2.97-1.62,6.25s11-0.1,9.52-2.55c-1.48-2.45-1.48-2.45-1.48-2.45s8.36,1.79,15.37,4.61c7.01,2.81,7.01,2.81,7.01,2.81
			s-9.78-0.64-8.13,1.45c1.65,2.09,13.34,1.46,13.34,1.46s7.41,3.82,9.69,6.44c2.27,2.63,2.27,2.63,2.27,2.63s-4.29,4.49-7.91,5.68
			c-3.63,1.19-3.63,1.19-3.63,1.19s-2.94-4.01-7.67-1.4c-4.73,2.61,1.93,6.16,1.93,6.16l-7.56,3.98c0,0-5.98-5.95-9.96-2.12
			C413.3,302.02,416.74,305.9,416.74,305.9z"/>
	</g>
	<g>
		<path class="st1" d="M369.02,311.13c-0.27-0.03-0.43-0.23-0.4-0.45c0.02-0.18,2.08-17.75,20.6-25.74
			c18.91-8.15,47.29-2.2,47.58-2.13c0.22,0.05,0.36,0.26,0.31,0.48c-0.05,0.22-0.27,0.36-0.48,0.31
			c-0.28-0.06-28.41-5.96-47.08,2.09c-18.07,7.79-20.09,24.9-20.11,25.08C369.41,310.98,369.23,311.13,369.02,311.13z"/>
	</g>
	<g>
		<path class="st0" d="M312.99,274.91c0,0,9.25,8.85,29.4,5.43c20.15-3.43,10.21-25.81,6.27-31.13c-3.93-5.32-8.3-7.7-8.3-7.7
			s4.36,5.32-1.19,6.35c-5.55,1.03-9.92-4.76-7.54-6.35c2.38-1.59,2.38-1.59,2.38-1.59s-8.33-1.92-15.87-2.35
			c-7.54-0.43-7.54-0.43-7.54-0.43s9.13,3.57,6.75,4.76c-2.38,1.19-12.7-4.33-12.7-4.33s-8.33,0.31-11.51,1.73
			c-3.17,1.42-3.17,1.42-3.17,1.42s1.98,5.88,4.76,8.5c2.78,2.61,2.78,2.61,2.78,2.61s4.36-2.38,7.54,1.98
			c3.17,4.36-4.36,4.76-4.36,4.76l5.16,6.82c0,0,7.94-2.85,9.92,2.31C317.75,272.85,312.99,274.91,312.99,274.91z"/>
	</g>
	<g>
		<path class="st0" d="M400.05,264.4c0,0-0.87,16.38-18.05,15.78c-17.97-0.63-19.13-20.47-17.55-25.81s4.34-8.48,4.34-8.48
			s-3.09,7.11,1.59,6.32c4.69-0.79,7.65-8.26,5.31-8.83c-2.34-0.57-2.34-0.57-2.34-0.57s6.03-3.92,11.87-6.43
			c5.83-2.51,5.83-2.51,5.83-2.51s-6.18,5.45-3.96,5.71c2.22,0.25,8.79-7.08,8.79-7.08s6.67-2.16,9.59-1.95
			c2.92,0.21,2.92,0.21,2.92,0.21s0.13,5.22-1.31,8.09c-1.45,2.87-1.45,2.87-1.45,2.87s-4.14-0.62-5.39,3.74
			c-1.25,4.36,4.82,2.51,4.82,2.51l-2.11,6.87c0,0-7.09,0.03-7.17,4.68C395.69,264.15,400.05,264.4,400.05,264.4z"/>
	</g>
	<g>
		<path class="st1" d="M369.02,319.52c-0.02,0-0.04,0-0.05,0c-0.22-0.03-0.38-0.23-0.35-0.46c0.02-0.18,2.25-17.84-7.17-33.67
			c-12.9-21.67-45.49-33.36-45.81-33.48c-0.21-0.07-0.32-0.31-0.25-0.52c0.08-0.21,0.31-0.32,0.52-0.25
			c0.33,0.12,33.19,11.9,46.24,33.83c9.57,16.08,7.31,34.01,7.28,34.19C369.4,319.37,369.22,319.52,369.02,319.52z"/>
	</g>
	<g>
		<path class="st1" d="M367.36,299.1c-0.21,0-0.39-0.17-0.41-0.38c-1.87-30.59,22.14-50.97,22.38-51.17
			c0.17-0.14,0.43-0.12,0.57,0.05c0.14,0.17,0.12,0.43-0.05,0.57c-0.24,0.2-23.93,20.33-22.09,50.5c0.01,0.22-0.16,0.42-0.38,0.43
			C367.37,299.1,367.37,299.1,367.36,299.1z"/>
	</g>
	<g>
		<path class="st2" d="M388.38,353.67h-26.84c-1.46,0-2.67-1.04-2.82-2.4l-4.11-39.1c-0.16-1.56,1.14-2.92,2.82-2.92h35.05
			c1.67,0,2.98,1.35,2.82,2.92l-4.11,39.1C391.06,352.63,389.84,353.67,388.38,353.67z"/>
	</g>
	<g>
		<path class="st3" d="M382.44,353.67H355.6c-1.46,0-2.67-1.04-2.82-2.4l-4.11-39.1c-0.16-1.56,1.14-2.92,2.82-2.92h35.05
			c1.67,0,2.98,1.35,2.82,2.92l-4.11,39.1C385.12,352.63,383.9,353.67,382.44,353.67z"/>
	</g>
</g>
<g>
	<polygon class="st4" points="252.31,218.31 305.25,231.29 285.33,241.78 	"/>
</g>
<g>
	<ellipse class="st5" cx="303.75" cy="246.97" rx="15.19" ry="16.04"/>
</g>
<g>
	<path class="st5" d="M318.94,246.97l0.32,91.03c0.02,5.09-3.21,9.27-7.3,9.47l-4.35,0.21l-12.06-16.6v-81.9L318.94,246.97z"/>
</g>
<g>
	<path class="st4" d="M64.77,233.49l1.9,106.36c0.12,6.03,4.31,10.85,9.43,10.85h41.76v-50.97L64.77,233.49z"/>
</g>
<g>
	<path class="st4" d="M205.58,170.34c-1.28-1.8-137.17-15.64-118.62,27.9c19.85,46.59,97.88,94.51,158.29,87.31
		c62.67-7.47,8.31-75.42,8.31-75.42L205.58,170.34z"/>
</g>
<g>
	<path class="st4" d="M114.21,183.87c-1.28-1.8-34.68-16.67-47.15,32.42c-12.47,49.08,27.22,95.03,86.82,82.79
		c28.73-5.9,33.14-25.67,29.62-45.15c-4.46-24.7-20.77-45.64-43.19-56.92L114.21,183.87z"/>
</g>
<g>
	<polygon class="st4" points="115,326.99 288.56,326.99 288.11,280.92 104.5,280.92 	"/>
</g>
<g>
	<path class="st5" d="M280.71,350.7H110.26c-8,0-14.49-6.49-14.49-14.49v-2.46c0-8,6.49-14.49,14.49-14.49h170.46
		c8,0,14.49,6.49,14.49,14.49v2.46C295.2,344.22,288.72,350.7,280.71,350.7z"/>
</g>
<g>
	<polygon class="st6" points="122.11,324.55 121.04,344.92 144.51,350.7 146.38,342.39 146.25,321.62 	"/>
</g>
<g>
	<polygon class="st6" points="181.84,322.58 182.19,342.98 206,347.11 207.29,338.69 205.71,317.97 	"/>
</g>
<g>
	<path class="st4" d="M180.27,274.51c-0.11,0-0.22-0.04-0.3-0.13c-13.25-14.07-15.54-30.25-15.56-30.41
		c-0.03-0.22,0.13-0.43,0.35-0.46c0.22-0.03,0.43,0.13,0.46,0.35c0.02,0.16,2.28,16.09,15.35,29.96c0.15,0.16,0.15,0.42-0.02,0.57
		C180.47,274.47,180.37,274.51,180.27,274.51z"/>
</g>
<g>
	<path class="st7" d="M336.33,361.83c-1.03,0.7-63.91,2.34-65.42,1.16c-0.54-0.42-0.74-3.4-0.67-7.67
		c0.12-7.77,3.46-21.29,5.24-29.61c0,0,22.03-0.24,24.08,0.86c2.07,1.1,24.57,17.28,24.57,17.28s8.29,2.44,11.55,6.98
		c0.95,1.33,1.5,2.79,1.76,4.16C338.07,358.32,337.05,361.35,336.33,361.83z"/>
</g>
<g>
	<path class="st8" d="M336.33,361.83c-1.03,0.7-63.91,2.34-65.42,1.16c-0.54-0.42-0.74-3.4-0.67-7.67l67.2-0.33
		C338.07,358.32,337.05,361.35,336.33,361.83z"/>
</g>
<g>
	<path class="st8" d="M317.85,339.84c0,0-18.41-0.04-18.41-0.04c-0.17,0-0.33-0.11-0.38-0.28c-0.06-0.17,0-0.35,0.14-0.45l8.53-6.57
		c0.18-0.14,0.43-0.1,0.57,0.07c0.14,0.18,0.1,0.43-0.07,0.57l-7.58,5.85l17.22,0.04c0.22,0,0.41,0.18,0.41,0.41
		C318.25,339.66,318.07,339.84,317.85,339.84z"/>
</g>
<g>
	<path class="st1" d="M297.58,366.92c-1.11,0.71-67.44,0.52-68.99-0.78c-0.55-0.46-0.68-3.61-0.47-8.11
		c0.37-8.19,4.3-22.34,6.43-31.05c0,0,23.23,0.42,25.36,1.64c2.15,1.23,25.37,18.96,25.37,18.96s8.67,2.82,11.97,7.71
		c0.96,1.43,1.5,2.98,1.72,4.44C299.52,363.27,298.36,366.44,297.58,366.92z"/>
</g>
<g>
	<path class="st8" d="M297.58,366.92c-1.11,0.71-67.44,0.52-68.99-0.78c-0.55-0.46-0.68-3.61-0.47-8.11l70.84,1.7
		C299.52,363.27,298.36,366.44,297.58,366.92z"/>
</g>
<g>
	<path class="st8" d="M278.78,343.16c-0.01,0-19.41-0.6-19.41-0.6c-0.17-0.01-0.32-0.12-0.38-0.29c-0.05-0.17,0.01-0.35,0.15-0.45
		l9.19-6.67c0.18-0.13,0.43-0.09,0.57,0.09c0.13,0.18,0.09,0.44-0.09,0.57l-8.23,5.97l18.21,0.56c0.22,0.01,0.4,0.19,0.39,0.42
		C279.18,342.98,279,343.16,278.78,343.16z"/>
</g>
<g>
	<path class="st1" d="M151.13,220.38c0,0,47.85,17.67,54.65,26.64c5.89,7.76,13.4,83.01,12,84.43c-1.41,1.41-43.25,1.92-45.07,0.69
		c-1.82-1.23-10.64-56.61-13.2-56.75c-2.56-0.14-51.62-48.92-51.62-48.92L151.13,220.38z"/>
</g>
<g>
	<path class="st1" d="M105.5,226.07c0,0-1.92,19.1-0.45,26.25c1.47,7.15,16.57,14.55,16.57,14.55s-9.46,63.2-8.46,63.65
		c1,0.45,42.43,1.94,43.25,1.49c0.82-0.45,17.64-74.28,14.06-85.15c-3.58-10.87-15.37-12.47-15.37-12.47L105.5,226.07z"/>
</g>
<g>
	<path d="M122.07,268.62c-0.23-0.02-0.38-0.17-0.4-0.36c-0.15-1.4-1.44-13.76,0.82-15.84c0.32-0.3,0.72-0.41,1.13-0.33
		c0.42,0.08,0.76,0.34,1,0.75c1.72,2.91-1.76,14.21-2.17,15.49C122.4,268.5,122.25,268.62,122.07,268.62z M123.36,252.88
		c-0.12,0-0.22,0.04-0.32,0.14c-1.31,1.2-1.21,7.86-0.76,13.08c1.16-4.14,2.75-10.99,1.65-12.84c-0.16-0.28-0.34-0.34-0.46-0.37
		C123.43,252.88,123.39,252.88,123.36,252.88z"/>
</g>
<g>
	<path class="st9" d="M256.51,217.92c0,0,44.53,21.25,49.57,30c5.04,8.75-0.51,80.08-0.51,80.08l-36.39,0.51l-5.04-39.86
		l-27.66-67.14L256.51,217.92z"/>
</g>
<g>
	<path class="st9" d="M210.13,222.16c0,0-4.05,18.15-1.07,25.42c2.4,5.84,19.59,21.08,19.59,21.08l0.94,61.27l42.08,1.96
		c0,0,0.92-70.01,0.21-76.61c-0.7-6.59-28.7-30.57-28.7-30.57L210.13,222.16z"/>
</g>
<g>
	<path class="st8" d="M274.08,328.57c-0.25-0.02-0.42-0.21-0.41-0.43c0.04-0.66,4.19-65.72,2.65-73.31
		c-1.05-5.17-19.94-22.79-20.13-22.97c-0.1-0.09-0.15-0.24-0.12-0.37c0.03-0.14,0.12-0.25,0.25-0.3l11.35-4.35
		c0.21-0.08,0.44,0.02,0.52,0.23c0.08,0.21-0.02,0.44-0.23,0.52l-10.74,4.11c3.04,2.85,18.89,17.95,19.9,22.95
		c1.56,7.69-2.46,70.84-2.64,73.52C274.47,328.4,274.29,328.57,274.08,328.57z"/>
</g>
<g>
	<path class="st8" d="M228.96,272.35c-0.08,0-0.15-0.02-0.22-0.06c-0.13-0.08-0.2-0.23-0.19-0.38c0.02-0.26,0.62-6.39,3.54-8.33
		c0.93-0.62,2-0.75,3.17-0.38c1.01,0.32,1.57,0.85,1.65,1.58c0.31,2.71-6.92,7.03-7.75,7.51
		C229.1,272.33,229.03,272.35,228.96,272.35z M234,263.8c-0.53,0-1.01,0.15-1.46,0.45c-2.01,1.34-2.81,5.2-3.07,6.9
		c2.91-1.81,6.8-4.77,6.63-6.29c-0.04-0.38-0.41-0.69-1.09-0.9C234.66,263.86,234.32,263.8,234,263.8z"/>
</g>
<g>
	<path class="st10" d="M176.45,364.91c0,0,0.72-32.24,5.73-31.57c5.01,0.67,10.02,5.37,10.02,5.37s11.45-6.05,16.46-2.69
		s7.89,10.75,7.89,10.75l23.2,12.2c4.29,2.26,7.16,6.61,7.34,11.45c0.04,1.03-0.02,1.93-0.25,2.55c-0.76,2.1-43.19,0.92-61.8,0.3
		C180.25,373.11,176.45,369.42,176.45,364.91L176.45,364.91z"/>
</g>
<g>
	<path d="M223.77,138.11c0,0-10.14,1.29-14.85,12.18c-4.71,10.9,7.42,19.62,7.42,19.62l42.22-2.07v-17.55L223.77,138.11z"/>
</g>
<g>
	<g>
		<path class="st6" d="M231.23,148.06l-0.03,10.54c0,0,1.89,3.04,8.06,3.56c4.59,0.39,6.21-0.65,6.21-0.65l-0.63-5.34l-0.62-5.21
			l-11.13-2.48L231.23,148.06z"/>
	</g>
</g>
<g>
	<g>
		<path d="M233.1,148.47c0.03,0.29,0.13,0.63,0.3,1.02c2.34,5.27,8.79,6.43,11.44,6.67l-0.62-5.21L233.1,148.47z"/>
	</g>
</g>
<g>
	<g>
		<path class="st6" d="M246.65,126.93c0,0,5.5,13.24,3.29,20.57c-2.2,7.34-8.9,6.05-12.9,4.55c-3.99-1.5-5.82-4-5.82-4
			s-3.78,1.2-6.23-2.33c-2.45-3.54-0.83-7.52,1.33-8.4c2.16-0.88,4.68,0.72,4.68,0.72l-1.93-3.85
			C229.09,134.19,237.86,114.95,246.65,126.93z"/>
	</g>
</g>
<g>
	<path d="M230.61,143.72c-0.08,0-0.17-0.03-0.24-0.08l-4.74-3.43c-0.18-0.13-0.22-0.39-0.09-0.57c0.13-0.18,0.39-0.22,0.57-0.09
		l4.74,3.43c0.18,0.13,0.22,0.39,0.09,0.57C230.86,143.66,230.74,143.72,230.61,143.72z"/>
</g>
<g>
	<path d="M226.28,143.64c-0.18,0-0.35-0.12-0.39-0.31c-0.06-0.22,0.08-0.44,0.29-0.49l3.13-0.8c0.22-0.05,0.44,0.08,0.49,0.29
		c0.06,0.22-0.08,0.44-0.29,0.49l-3.13,0.8C226.35,143.64,226.32,143.64,226.28,143.64z"/>
</g>
<g>
	<path d="M246.23,142.01c-0.02,0-0.04,0-0.06,0c-0.22-0.03-0.37-0.24-0.34-0.46c0.49-3.15-1.51-4.85-1.6-4.92
		c-0.17-0.14-0.2-0.4-0.06-0.57c0.14-0.17,0.4-0.2,0.57-0.06c0.1,0.08,2.45,2.05,1.89,5.67
		C246.6,141.87,246.42,142.01,246.23,142.01z"/>
</g>
<g>
	<path d="M248.24,131.41c-0.04,0-2.04-0.19-2.04-0.19c-0.22-0.02-0.39-0.22-0.37-0.44c0.02-0.22,0.21-0.39,0.44-0.37l2,0.19
		c0.22,0.02,0.39,0.22,0.37,0.44C248.62,131.26,248.44,131.41,248.24,131.41z"/>
</g>
<g>
	<path d="M239.23,133.14c-0.16,0-0.31-0.09-0.37-0.24c-0.09-0.21,0-0.44,0.21-0.53l2.7-1.18c0.21-0.09,0.44,0,0.53,0.21
		c0.09,0.21,0,0.44-0.21,0.53l-2.7,1.18C239.34,133.13,239.28,133.14,239.23,133.14z"/>
</g>
<g>
	<path class="st6" d="M168.23,178.89c0,0,16.06,9.02,26.7,7.32C205.58,184.52,184.6,209,184.6,209s-42.82,4.8-36.33-17.93
		C154.75,168.34,168.23,178.89,168.23,178.89z"/>
</g>
<g>
	<path class="st6" d="M263.24,154.31c0,0-5-18.08-7.5-17.78c-2.5,0.3-7.48,5.3-8.49,7.13c-1.01,1.83,0,4.17,0,4.17
		s-0.99,1.24,0,2.04c0.99,0.8,3.82-0.9,3.82-0.9s-2.5,12.53,4.83,14.03C263.25,164.5,263.24,154.31,263.24,154.31z"/>
</g>
<g>
	<path d="M247.53,147.68c-0.12,0-0.24-0.05-0.32-0.16c-0.14-0.18-0.11-0.43,0.07-0.57l5.49-4.3c0.17-0.14,0.43-0.11,0.57,0.07
		c0.14,0.18,0.11,0.43-0.07,0.57l-5.49,4.3C247.71,147.65,247.62,147.68,247.53,147.68z"/>
</g>
<g>
	<path d="M248.35,143.37c-0.13,0-0.26-0.07-0.34-0.19c-0.12-0.19-0.07-0.44,0.12-0.56l4.67-3.02c0.19-0.12,0.44-0.07,0.56,0.12
		c0.12,0.19,0.07,0.44-0.12,0.56l-4.67,3.02C248.5,143.35,248.43,143.37,248.35,143.37z"/>
</g>
<g>
	<path class="st3" d="M248.73,199.46c0,0,11.51-10.16,9.91-17.6c-1.6-7.44-6.24-15.41-6.24-15.41l10.92-12.84
		c0,0,16.29,19.18,20.55,37.02s-0.95,26.79-13.4,25.04C259.28,214.1,248.73,199.46,248.73,199.46z"/>
</g>
<g>
	<g>
		<path class="st3" d="M216.99,161.25c0,0-28.67,11.15-35.9,35.51c-6.82,22.98,27.57,25.16,27.57,25.16s-1.61-10.17,6.69-12.85
			c8.3-2.68,12.05,0.54,12.05,0.54l-18.2-20.61L216.99,161.25z"/>
	</g>
</g>
<g>
	<g>
		<path class="st3" d="M261.92,197.83c0,0-1.34,5.08-1.34,6.16s-1.34,13.38-2.14,15.53c-0.8,2.13-8.29,8.3-24.09,7.23
			c-15.79-1.07-25.96-2.95-28.37-5.63c-2.41-2.67,0.81-51.4,4.82-56.22c4.01-4.82,14.72-5.08,14.72-5.08s-0.81-2.67,1.34-3.75
			c2.14-1.07,9.64,2.41,13.66,2.67c4.01,0.26,5.61-1.07,7.23-0.79c1.6,0.26,2.13,3.75,2.13,3.75s5.49,3.48,10.05,14.72
			C264.46,187.65,261.92,197.83,261.92,197.83z"/>
	</g>
</g>
<g>
	<path class="st6" d="M254.31,204.84c0,0,16.2,1.99,14.78,4.69c-1.42,2.71-14.6,1.68-14.6,1.68s16.07,0.07,12.28,3.8
		c-3.8,3.73-15.34,4.35-15.34,4.35l-6.58-5.31l3.14-9.93L254.31,204.84z"/>
</g>
<g>
	<path class="st11" d="M258.57,201.79c-0.06,0-0.13-0.02-0.19-0.05c-0.2-0.11-0.27-0.35-0.17-0.55c0.04-0.07,3.86-7.35,3.68-15.68
		c-0.18-8.32-6.53-17.09-6.59-17.17c-0.13-0.18-0.09-0.44,0.09-0.57c0.18-0.13,0.43-0.09,0.57,0.09c0.27,0.37,6.56,9.06,6.75,17.64
		c0.19,8.55-3.73,16.01-3.77,16.08C258.85,201.71,258.71,201.79,258.57,201.79z"/>
</g>
<g>
	<path class="st6" d="M237.12,202.34v16.51c0,0,11.72,1.1,14.31,0.5c2.59-0.59,3.99-10.35,5.04-12.13c1.06-1.78,8.4-0.95,10.44-2.97
		c4-3.95-19.26-3.92-19.26-3.92s2.85-4.93,0-4.88C244.8,195.51,237.12,202.34,237.12,202.34z"/>
</g>
<g>
	<path d="M242.83,145.59c-0.09,0-0.18-0.03-0.26-0.09l-1.87-1.56c-0.17-0.14-0.19-0.4-0.05-0.57c0.14-0.17,0.4-0.19,0.57-0.05
		l1.87,1.56c0.17,0.14,0.19,0.4,0.05,0.57C243.07,145.54,242.95,145.59,242.83,145.59z"/>
</g>
<g>
	<path d="M241.29,137.16c-0.18,0-0.34-0.12-0.39-0.3l-0.65-2.42c-0.03-0.1-0.02-0.2,0.03-0.3l0.65-1.24c0.1-0.2,0.35-0.27,0.55-0.17
		c0.2,0.1,0.27,0.35,0.17,0.55l-0.58,1.1l0.61,2.27c0.06,0.22-0.07,0.44-0.29,0.5C241.37,137.16,241.33,137.16,241.29,137.16z"/>
</g>
<g>
	<path d="M247.97,136.72c-0.18,0-0.34-0.12-0.39-0.3l-0.65-2.42c-0.02-0.09-0.02-0.18,0.02-0.27l0.67-1.54
		c0.09-0.21,0.33-0.3,0.53-0.21c0.21,0.09,0.3,0.33,0.21,0.53l-0.61,1.41l0.62,2.28c0.06,0.22-0.07,0.44-0.29,0.5
		C248.04,136.71,248,136.72,247.97,136.72z"/>
</g>
<g>
	<path d="M247.65,200.74c0,0-3.31-0.01-3.31-0.01c-0.22,0-0.41-0.18-0.41-0.41c0-0.22,0.18-0.41,0.41-0.41c0,0,3.31,0.01,3.31,0.01
		c0.22,0,0.41,0.18,0.41,0.41C248.05,200.56,247.87,200.74,247.65,200.74z"/>
</g>
<g>
	<path d="M231.02,138.04l2.87,3.42l-1.04-4.58c0,0,7.64-2.8,9.99-7.23c2.35-4.43,1.74-4.99,1.74-4.99l2.07,2.27
		c0,0,2.25-8.2-10.36-9.14c-12.61-0.94-12.89,9.67-12.89,9.67s-3.89,1.41-3.33,6.87c0.56,5.47,3.74,7.13,3.74,7.13
		S225.25,135.78,231.02,138.04z"/>
</g>
<g>
	<path class="st11" d="M233.1,194.77c-0.04,0-0.09-0.01-0.13-0.02c-0.18-0.06-17.92-6.07-30.66-3.41c-0.22,0.05-0.43-0.09-0.48-0.31
		c-0.05-0.22,0.09-0.43,0.31-0.48c12.96-2.71,30.91,3.37,31.09,3.44c0.21,0.07,0.33,0.3,0.25,0.52
		C233.42,194.67,233.26,194.77,233.1,194.77z"/>
</g>
<g>
	<path class="st11" d="M215.76,191c-0.04,0-0.09-0.01-0.13-0.02c-2.31-0.77-9.87-3.43-9.96-5.53c-0.02-0.35,0.14-0.85,0.99-1.23
		c4.21-1.85,9.23,5.83,9.44,6.16c0.09,0.14,0.09,0.33-0.02,0.47C216.01,190.95,215.89,191,215.76,191z M208.06,184.75
		c-0.36,0-0.72,0.07-1.07,0.22c-0.19,0.08-0.52,0.26-0.51,0.45c0.04,0.96,4.1,2.92,8.22,4.39
		C213.41,188.08,210.59,184.75,208.06,184.75z"/>
</g>
<g>
	<path class="st11" d="M233.02,161.88c-3.18,0-7.46-1.62-7.64-1.69c-0.21-0.08-0.31-0.31-0.23-0.52c0.08-0.21,0.32-0.31,0.52-0.23
		c0.05,0.02,4.68,1.77,7.72,1.63c0.21,0,0.41,0.16,0.42,0.39c0.01,0.22-0.16,0.41-0.39,0.42
		C233.29,161.88,233.15,161.88,233.02,161.88z"/>
</g>
<g>
	<path class="st12" d="M148.44,163.09l-8.66-6.91l-10.92-0.83l-10.07,3.74l5.27,65.16c0,0,15.86,4.32,26.32-1.19
		C160.85,217.54,148.44,163.09,148.44,163.09z"/>
</g>
<g>
	<path class="st13" d="M108,161.64c4.92-4.56,12.93-5.82,17.64-6.16c0,0-1.15,30.86,0.47,49.85c0.92,10.73,1.48,18.2,1.79,22.68
		c-11.3,0.28-23.93-0.07-23.93-0.07S100.72,168.39,108,161.64z"/>
</g>
<g>
	<path class="st13" d="M158.79,204.52c-0.06,11.46-0.33,20.75-0.33,20.75s0.42-0.56-7.33,0.8c-0.03-8.45-1.26-23.29-2.62-35.82
		c-1.73-16.02-8.74-34.07-8.74-34.07l-14.14-0.7c1.43-0.1,2.57-0.13,3.22-0.13c0.39,0,0.62,0.01,0.62,0.01s15.96,0.65,23.5,4.68
		c0,0,0.19,0.1,0.53,0.29c1.29,0.77,2.3,1.66,2.86,2.66C158.57,166.94,158.9,187.97,158.79,204.52z"/>
</g>
<g>
	<path class="st13" d="M116.94,156.97c0,0-17.84,2.85-28.4,16.88c-9.06,12.03-11.96,25.72-11.96,25.72s10.03-1.69,16.1-1.62
		c6.07,0.06,14.81,0.78,14.81,0.78L116.94,156.97z"/>
</g>
<g>
	<path d="M145.02,129.2c0,0,3.58-11.71-1.68-14.15c-5.26-2.44-8.67,4.4-8.67,4.4s-11.91,0.78-16.57,7.05
		c-4.66,6.26,6.19,17.66,6.19,17.66L145.02,129.2z"/>
</g>
<g>
	<g>
		<path class="st6" d="M126.34,146.62l-0.93,10.93c0,0,1.71,3.31,8.06,4.37c4.73,0.79,6.5-0.14,6.5-0.14l-0.2-5.59l-0.2-5.46
			l-11.33-3.52L126.34,146.62z"/>
	</g>
</g>
<g>
	<g>
		<path d="M128.24,147.21c0,0.3,0.09,0.66,0.23,1.08c1.98,5.67,8.57,7.41,11.3,7.89l-0.2-5.46L128.24,147.21z"/>
	</g>
</g>
<g>
	<g>
		<path class="st6" d="M144.13,126.01c0,0,4.58,14.19,1.67,21.62c-2.91,7.42-9.75,5.52-13.76,3.63c-4.02-1.89-5.69-4.64-5.69-4.64
			s-4.02,0.93-6.26-2.95c-2.24-3.88-0.22-7.87,2.1-8.6c2.32-0.73,4.8,1.14,4.8,1.14l-1.67-4.16
			C125.3,132.05,136.03,112.84,144.13,126.01z"/>
	</g>
</g>
<g>
	<path d="M126.11,142.05c-0.09,0-0.19-0.03-0.26-0.1l-4.63-3.96c-0.17-0.15-0.19-0.4-0.04-0.57c0.15-0.17,0.4-0.19,0.57-0.04
		l4.63,3.96c0.17,0.15,0.19,0.4,0.04,0.57C126.34,142,126.22,142.05,126.11,142.05z"/>
</g>
<g>
	<path d="M121.62,141.6c-0.19,0-0.37-0.14-0.4-0.34c-0.04-0.22,0.11-0.43,0.33-0.47l3.31-0.56c0.22-0.04,0.43,0.11,0.47,0.33
		c0.04,0.22-0.11,0.43-0.33,0.47l-3.31,0.56C121.67,141.6,121.64,141.6,121.62,141.6z"/>
</g>
<g>
	<path d="M142.45,141.6c-0.03,0-0.06,0-0.1-0.01c-0.22-0.05-0.35-0.27-0.3-0.49c0.78-3.24-1.16-5.17-1.25-5.25
		c-0.16-0.16-0.16-0.41-0.01-0.57c0.16-0.16,0.41-0.16,0.57-0.01c0.1,0.09,2.36,2.33,1.47,6.03
		C142.8,141.48,142.63,141.6,142.45,141.6z"/>
</g>
<g>
	<path d="M144.67,136.61c-0.19,0-0.36-0.14-0.4-0.33l-0.47-2.57c-0.04-0.22,0.11-0.43,0.33-0.47c0.22-0.04,0.43,0.11,0.47,0.33
		l0.47,2.57c0.04,0.22-0.11,0.43-0.33,0.47C144.72,136.6,144.7,136.61,144.67,136.61z"/>
</g>
<g>
	<path d="M137.74,136.16c-0.19,0-0.36-0.14-0.4-0.33l-0.47-2.57c-0.04-0.22,0.11-0.43,0.33-0.47c0.22-0.04,0.43,0.11,0.47,0.33
		l0.47,2.57c0.04,0.22-0.11,0.43-0.33,0.47C137.79,136.15,137.77,136.16,137.74,136.16z"/>
</g>
<g>
	<path d="M145.02,129.2c0,0-1-2.3-3.73-2.55c-2.73-0.25-4.48,1.54-4.48,1.54s0.81,4.69-3.11,6.82c-3.92,2.13-6.73,1.2-6.73,1.2
		l-2.61-1.19l-1.64-4.1l8.49-7.73l10.52-4.46l3.97,4.27L145.02,129.2z"/>
</g>
<g>
	<path class="st14" d="M136.29,163c-6.6,0-10.91-4.58-10.96-4.63c-0.15-0.16-0.14-0.42,0.02-0.57c0.16-0.15,0.42-0.14,0.57,0.02
		c0.06,0.06,5.6,5.93,13.66,3.96c0.21-0.05,0.44,0.08,0.49,0.3c0.05,0.22-0.08,0.44-0.3,0.49C138.56,162.88,137.39,163,136.29,163z"
		/>
</g>
<g>
	<path class="st6" d="M79.06,199.19c0,0-5.14,16.15,7.55,23.32c12.7,7.18,53.36-7.73,53.36-7.73l-2.23-16.83h-34.49
		C103.25,197.95,83.1,197.94,79.06,199.19z"/>
</g>
<g>
	<path d="M145.4,131.18c-0.02,0-0.05,0-0.07-0.01l-2.06-0.37c-0.22-0.04-0.37-0.25-0.33-0.47c0.04-0.22,0.25-0.37,0.47-0.33
		l2.06,0.37c0.22,0.04,0.37,0.25,0.33,0.47C145.76,131.05,145.59,131.18,145.4,131.18z"/>
</g>
<g>
	<path d="M135.94,131.81c-0.17,0-0.33-0.11-0.38-0.28c-0.07-0.21,0.04-0.44,0.25-0.52l2.9-0.99c0.21-0.07,0.44,0.04,0.52,0.25
		c0.07,0.21-0.04,0.44-0.25,0.52l-2.9,0.99C136.03,131.8,135.98,131.81,135.94,131.81z"/>
</g>
<g>
	<path class="st13" d="M155.1,161.48c0,0,5.43,5.47,10.78,9.61c5.34,4.14,8.58,7.31,8.58,7.31s-2.45,8.96-6.23,19.54
		c-2.98,8.34-5,16.83-5,16.83s-12.75,1.06-13.93-7.28C148.12,199.15,155.1,161.48,155.1,161.48z"/>
</g>
<g>
	<path class="st6" d="M136.88,197.62c0,0,9.33-6.64,11.38-6.55c2.05,0.09,9.98,1.76,10.42,3.27c0.44,1.51-6.85,3.27-6.85,3.27
		s3.28,3.03,6.18,4.21c2.9,1.18,11.68,0.32,12.56,2.46c0.88,2.14-2.35,2-2.35,2s3.82,1.91-0.59,4.26
		c-4.41,2.35-23.95,7.05-32.68,2.64C126.23,208.78,136.88,197.62,136.88,197.62z"/>
</g>
<g>
	<path d="M158.82,208.58c-0.35,0-0.57-0.01-0.61-0.01c-0.22-0.01-0.4-0.2-0.39-0.42c0.01-0.22,0.21-0.42,0.43-0.39
		c0.05,0,5.21,0.22,9.82-1.84c0.2-0.09,0.44,0,0.54,0.21c0.09,0.21,0,0.45-0.2,0.54C164.5,208.4,160.35,208.58,158.82,208.58z"/>
</g>
<g>
	<path d="M151.84,198.03h-5.07c-0.22,0-0.41-0.18-0.41-0.41c0-0.22,0.18-0.41,0.41-0.41h5.07c0.22,0,0.41,0.18,0.41,0.41
		C152.24,197.85,152.06,198.03,151.84,198.03z"/>
</g>
<g>
	<path d="M141.86,144.8h-3.02c-0.22,0-0.41-0.18-0.41-0.41c0-0.22,0.18-0.41,0.41-0.41h3.02c0.22,0,0.41,0.18,0.41,0.41
		C142.27,144.62,142.09,144.8,141.86,144.8z"/>
</g>
<g>
	<path d="M260.85,206.29h-9.25c-0.22,0-0.41-0.18-0.41-0.41c0-0.22,0.18-0.41,0.41-0.41h9.25c0.22,0,0.41,0.18,0.41,0.41
		C261.26,206.11,261.08,206.29,260.85,206.29z"/>
</g>
<g>
	<path d="M260.85,212.14h-9.25c-0.22,0-0.41-0.18-0.41-0.41c0-0.22,0.18-0.41,0.41-0.41h9.25c0.22,0,0.41,0.18,0.41,0.41
		C261.26,211.96,261.08,212.14,260.85,212.14z"/>
</g>
<g>
	<path d="M164.82,302.58c-0.03,0-0.06,0-0.08-0.01c-0.22-0.05-0.36-0.26-0.31-0.48c0.09-0.4,8.54-40.55,6.16-50.24
		c-2.36-9.6-21.28-19.74-21.47-19.84c-0.15-0.08-0.23-0.24-0.21-0.4c0.02-0.17,0.14-0.3,0.3-0.35l7.01-1.94
		c0.22-0.06,0.44,0.07,0.5,0.28c0.06,0.22-0.07,0.44-0.28,0.5l-6.05,1.68c3.86,2.16,18.82,11.04,20.99,19.88
		c2.42,9.86-5.8,48.94-6.15,50.6C165.17,302.45,165,302.58,164.82,302.58z"/>
</g>
<g>
	<path class="st8" d="M211.78,351.11c-0.18,0-0.35-0.12-0.39-0.3c-0.06-0.22,0.07-0.44,0.29-0.5l8.22-2.12
		c0.21-0.05,0.44,0.08,0.49,0.29c0.06,0.22-0.07,0.44-0.29,0.5l-8.22,2.12C211.85,351.11,211.81,351.11,211.78,351.11z"/>
</g>
<g>
	<path class="st14" d="M107.65,198.03c-0.02,0-0.04,0-0.06,0c-0.22-0.03-0.38-0.24-0.34-0.46l0.76-5.32
		c0.03-0.22,0.24-0.38,0.46-0.34c0.22,0.03,0.38,0.24,0.34,0.46l-0.76,5.32C108.03,197.88,107.85,198.03,107.65,198.03z"/>
</g>
<g>
	<ellipse class="st8" cx="178.32" cy="97.74" rx="27.74" ry="19.83"/>
</g>
<g>
	<polygon class="st8" points="162.58,109.62 152.78,131.23 176.04,113.07 	"/>
</g>
<g>
	<polygon class="st4" points="79.51,226.07 103.98,233.49 115.57,267.52 73.98,253.86 	"/>
</g>
<g>
	<ellipse class="st5" cx="103.98" cy="249.54" rx="15.19" ry="16.04"/>
</g>
<g>
	<path class="st5" d="M119.17,249.99l0.32,91.03c0.02,5.09-3.21,9.27-7.3,9.47l-4.35,0.21l-12.06-16.6v-81.9L119.17,249.99z"/>
</g>
<g>
	<path class="st10" d="M158.28,356.21c0,0-6.57-17.29-11.01-20.35c-4.44-3.07-15.97,6.03-15.97,6.03s-9.21-10.19-11.67-5.03
		c-2.46,5.17-4.05,23.85-2.39,28.02c1.66,4.17,14.47,11.37,31.51,11.75c8.03,0.18,19.68-2.02,19.75-4.78
		C168.63,367.51,160.95,359.13,158.28,356.21z"/>
</g>
<g>
	<path class="st8" d="M153.33,354.15h-12.25c-0.22,0-0.41-0.18-0.41-0.41c0-0.22,0.18-0.41,0.41-0.41h12.25
		c0.22,0,0.41,0.18,0.41,0.41C153.74,353.97,153.56,354.15,153.33,354.15z"/>
</g>
<g>
	<path class="st1" d="M191.88,94.87h-27.13c-0.3,0-0.55-0.24-0.55-0.55c0-0.3,0.24-0.55,0.55-0.55h27.13c0.3,0,0.55,0.24,0.55,0.55
		C192.43,94.63,192.18,94.87,191.88,94.87z"/>
</g>
<g>
	<path class="st1" d="M191.88,101.71h-27.13c-0.3,0-0.55-0.24-0.55-0.55c0-0.3,0.24-0.55,0.55-0.55h27.13c0.3,0,0.55,0.24,0.55,0.55
		C192.43,101.46,192.18,101.71,191.88,101.71z"/>
</g>
<g>
	<g>
		<g>
			<path class="st15" d="M491.02,219.22H346.08c-3.01,0-5.45-2.44-5.45-5.45V84.42c0-3.01,2.44-5.45,5.45-5.45h144.94
				c3.01,0,5.45,2.44,5.45,5.45v129.35C496.47,216.78,494.03,219.22,491.02,219.22z"/>
		</g>
	</g>
</g>
<g>
	<g>
		<g>
			<path class="st16" d="M492.99,97.98v108.01c0,1.74-1.42,3.15-3.16,3.15H347.27c-1.74,0-3.16-1.41-3.16-3.15V97.98
				c0-1.74,1.42-3.16,3.16-3.16h142.56C491.57,94.82,492.99,96.24,492.99,97.98z"/>
		</g>
	</g>
</g>
<g>
	<g>
		<g>
			<path class="st17" d="M460.74,87.24c0,1.85-1.5,3.35-3.35,3.35c-1.85,0-3.35-1.5-3.35-3.35c0-1.85,1.5-3.35,3.35-3.35
				C459.23,83.89,460.74,85.39,460.74,87.24z"/>
		</g>
	</g>
</g>
<g>
	<g>
		<g>
			<path class="st17" d="M483.2,87.24c0,1.85-1.5,3.35-3.35,3.35s-3.35-1.5-3.35-3.35c0-1.85,1.5-3.35,3.35-3.35
				S483.2,85.39,483.2,87.24z"/>
		</g>
	</g>
</g>
<g>
	<g>
		<g>
			<g>
				<path class="st17" d="M367.96,88.73h-19.36c-0.82,0-1.49-0.67-1.49-1.49c0-0.82,0.67-1.49,1.49-1.49h19.36
					c0.82,0,1.49,0.67,1.49,1.49C369.45,88.06,368.78,88.73,367.96,88.73z"/>
			</g>
		</g>
	</g>
</g>
<g>
	<ellipse class="st8" cx="373.01" cy="52.21" rx="27.74" ry="19.83"/>
</g>
<g>
	<polygon class="st3" points="414.61,209.15 395.03,209.15 396.99,197.67 398.53,188.6 400.23,189.7 410.38,196.24 411.09,196.7 
		414.27,198.76 	"/>
</g>
<g>
	<path class="st3" d="M450.22,209.15h-44.8c-0.19-3.15-0.29-4.94-0.29-4.94l-6.07-5.03l-0.53-0.45v-16.5l2.15-1.17l0.67-0.36
		l3.48-1.9l0.76-0.41l2.84-1.55l5.85-3.18l7.42,1.75c0.01,0,7.14,1.68,7.14,1.68l2.28,0.53l7.37,1.73l8.37-2.35l2.55,5.67
		L450.22,209.15z"/>
</g>
<g>
	<path d="M397.89,128.94c0,0-2.34-54.05,12.33-56.35c14.67-2.29,16.97,7.98,16.97,7.98s4.62-0.56,8.66,10.94
		c1.88,5.34,5.23,24.13,5.23,24.13l-30.14,6.08L397.89,128.94z"/>
</g>
<g>
	<path class="st9" d="M431.46,185.35c0,0-29.61,2.21-34.26-8.26c-4.65-10.46,10.18-63.36,10.18-63.36s-0.74-4.26,4.18-4.4
		c4.92-0.14,10.5-1.95,13.65,0C428.36,111.28,431.46,185.35,431.46,185.35z"/>
</g>
<g>
	<g>
		<g>
			<g>
				<path class="st6" d="M421.94,100.31l0.55,10.24c0,0-0.47,2.83-6.43,3.64c-4.44,0.6-6.71-1.25-6.71-1.25l0.11-9.17l10.69-2.96
					L421.94,100.31z"/>
			</g>
		</g>
	</g>
</g>
<g>
	<g>
		<g>
			<g>
				<path d="M421.9,99.89c-0.03,0.28-0.13,0.61-0.3,0.99c-2.31,5.12-10.39,7.23-12.97,7.45l0.63-5.06L421.9,99.89z"/>
			</g>
		</g>
	</g>
</g>
<g>
	<g>
		<g>
			<g>
				<path class="st6" d="M405.92,80.55c0,0-4.69,13.13-2.18,20.15s8.95,5.44,12.75,3.79c3.81-1.65,5.45-4.17,5.45-4.17
					s3.73,0.98,5.93-2.57c2.2-3.56,0.43-7.35-1.71-8.1c-2.14-0.75-4.51,0.93-4.51,0.93l1.68-3.84
					C423.34,86.73,413.87,68.47,405.92,80.55z"/>
			</g>
		</g>
	</g>
</g>
<g>
	<path d="M407.6,96.7c-0.16,0-0.31-0.1-0.38-0.26c-1.05-2.66,0.66-5.57,0.73-5.7c0.12-0.19,0.37-0.26,0.56-0.14
		c0.19,0.11,0.26,0.36,0.14,0.56c-0.02,0.03-1.58,2.7-0.67,4.98c0.08,0.21-0.02,0.44-0.23,0.53C407.7,96.69,407.65,96.7,407.6,96.7z
		"/>
</g>
<g>
	<path d="M422.62,96.5c-0.09,0-0.18-0.03-0.26-0.09c-0.17-0.14-0.2-0.4-0.06-0.57l3.18-3.93c0.14-0.17,0.4-0.2,0.57-0.06
		c0.17,0.14,0.2,0.4,0.06,0.57l-3.18,3.93C422.85,96.45,422.74,96.5,422.62,96.5z"/>
</g>
<g>
	<path d="M426.2,95.24c-0.03,0-2.45-0.18-2.45-0.18c-0.22-0.02-0.39-0.21-0.38-0.44c0.02-0.22,0.19-0.39,0.44-0.37l2.42,0.18
		c0.22,0.02,0.39,0.21,0.38,0.43C426.59,95.07,426.42,95.24,426.2,95.24z"/>
</g>
<g>
	<path d="M404.33,86.46c-0.18,0-0.35-0.12-0.39-0.31c-0.06-0.22,0.08-0.44,0.29-0.49l2.23-0.57c0.22-0.05,0.44,0.08,0.49,0.29
		c0.06,0.22-0.08,0.44-0.29,0.49l-2.23,0.57C404.4,86.46,404.36,86.46,404.33,86.46z"/>
</g>
<g>
	<path d="M413.84,87.21c-0.05,0-0.1-0.01-0.15-0.03l-3.1-1.27c-0.21-0.09-0.31-0.32-0.22-0.53c0.09-0.21,0.32-0.31,0.53-0.22
		l3.1,1.27c0.21,0.09,0.31,0.32,0.22,0.53C414.15,87.11,414,87.21,413.84,87.21z"/>
</g>
<g>
	<path d="M404.74,91.69c-0.03,0-0.06,0-0.09-0.01c-0.22-0.05-0.36-0.27-0.31-0.48l0.48-2.14l-0.62-0.65
		c-0.16-0.16-0.15-0.42,0.01-0.57c0.16-0.16,0.42-0.15,0.57,0.01l0.77,0.81c0.09,0.1,0.13,0.24,0.1,0.37l-0.53,2.35
		C405.09,91.56,404.93,91.69,404.74,91.69z"/>
</g>
<g>
	<path d="M411.22,91.8c-0.03,0-0.06,0-0.09-0.01c-0.22-0.05-0.36-0.27-0.31-0.48l0.48-2.14l-0.91-0.9c-0.16-0.16-0.16-0.42,0-0.57
		c0.16-0.16,0.41-0.16,0.57,0l1.06,1.06c0.1,0.1,0.14,0.24,0.11,0.38l-0.52,2.35C411.58,91.67,411.41,91.8,411.22,91.8z"/>
</g>
<g>
	<path d="M402.49,85.3c0,0,3.5-0.9,5.99-0.94c2.49-0.04,2.49-0.04,2.49-0.04l0.79-4.04l0.22,4.35c0,0,1.77,0.21,3.55,1.02
		c1.78,0.81,2.99,1.87,2.99,1.87l1.47-3.45l-0.47,4.26l2.14,2.22l2.88-3l-2.26-5.79c0,0-4.92-6.15-5.28-6.21
		c-0.36-0.06-6.98-0.07-6.98-0.07s-5.56,2.53-5.69,2.72C404.2,78.41,402.49,85.3,402.49,85.3z"/>
</g>
<g>
	<path class="st9" d="M408.82,109.98c-0.01,0.04-0.01,0.09-0.02,0.13c0,0.03,0,0.08-0.01,0.11c0,0.02-0.01,0.03-0.01,0.05
		c-0.43,3.06-0.95,7.3-1.51,12.19c-1.3,11.36-2.79,26.2-3.95,37.86c0,0.12-0.01,0.23-0.03,0.34c-0.08,0.91-0.16,1.77-0.24,2.62
		c-0.19,1.83-0.36,3.57-0.51,5.16c-0.03,0.37-0.07,0.74-0.1,1.09c-0.57,5.87-0.93,9.67-0.93,9.67s-0.05,0.48-0.16,1.36
		c-0.03,0.21-0.05,0.45-0.09,0.7c-0.23,1.77-18.73-1.71-18.73-1.71c-0.02-0.01-0.41-0.4-0.41-0.4l-5.74-5.59
		c0,0-0.05-0.46-0.12-1.32c-0.08-1.1-0.16-2.86-0.11-5.14c0.08-3,0.37-6.89,1.2-11.32c0.33-1.79,0.74-3.66,1.27-5.6
		c1.23-4.53,3.04-9.41,5.69-14.34c3.88-7.28,8.33-12.74,12.35-16.73c6.4-6.33,11.73-8.93,12.15-9.12
		C408.81,109.98,408.82,109.98,408.82,109.98z"/>
</g>
<g>
	<path class="st6" d="M422.82,161.62c0,0-9.04-4.1-12.08-4.4c-3.04-0.3-10.11,5.43-10.11,5.43l5.35,20.49c0,0,21.09,0.03,22.81-5.94
		C430.51,171.23,422.82,161.62,422.82,161.62z"/>
</g>
<g>
	<path class="st8" d="M394.97,154.52c-0.25-0.02-0.42-0.21-0.41-0.44l1.11-15.12c0.02-0.22,0.21-0.4,0.43-0.38
		c0.22,0.02,0.39,0.21,0.38,0.43l-1.11,15.12C395.36,154.36,395.18,154.52,394.97,154.52z"/>
</g>
<g>
	<path class="st18" d="M408.63,162.47l9.7-17.02c0.38-0.67-0.1-1.49-0.87-1.49c-0.36,0-0.69,0.19-0.86,0.5l-10.7,18.42
		L408.63,162.47z"/>
</g>
<g>
	<path d="M402.08,163.83c-0.2,0-0.37-0.15-0.4-0.35c-0.03-0.22,0.12-0.43,0.34-0.46l10.63-1.54c0.23-0.03,0.43,0.12,0.46,0.34
		c0.03,0.22-0.12,0.43-0.34,0.46l-10.63,1.54C402.12,163.83,402.1,163.83,402.08,163.83z"/>
</g>
<g>
	<path class="st9" d="M421.89,108.33c0,0,11.12-1.02,25.58,9.51c15.85,11.54,25.84,40.63,19.13,55.61
		c-6.71,14.98-42.93,12.08-42.93,12.08l-3.1-26.57l7.67-1.72L421.89,108.33z"/>
</g>
<g>
	<path class="st19" d="M412.57,196.16l-27.67,1.87c-1.01,0.07-2.09-0.75-2.42-1.82l-13.45-43.38c-0.33-1.07,0.21-2,1.22-2.07
		l27.67-1.87c1.01-0.07,2.09,0.75,2.42,1.82l13.45,43.38C414.12,195.16,413.57,196.09,412.57,196.16z"/>
</g>
<g>
	<path class="st10" d="M409.33,196.37l-27.67,1.87c-1.01,0.07-2.09-0.75-2.42-1.82l-13.45-43.38c-0.33-1.07,0.21-2,1.22-2.07
		l27.67-1.87c1.01-0.07,2.09,0.75,2.42,1.82l13.45,43.38C410.89,195.37,410.34,196.3,409.33,196.37z"/>
</g>
<g>
	<path class="st20" d="M379.63,157.05c-1.68,0-3.18-1.11-3.71-2.77l-1.2-3.79c-0.06-0.2,0.05-0.42,0.25-0.49
		c0.2-0.07,0.42,0.05,0.49,0.25l1.2,3.79c0.44,1.4,1.76,2.32,3.17,2.23l6.73-0.44c0.76-0.05,1.45-0.44,1.9-1.07
		c0.47-0.67,0.62-1.51,0.39-2.3l-0.79-2.82c-0.06-0.21,0.06-0.42,0.27-0.48c0.21-0.06,0.42,0.06,0.48,0.27l0.79,2.82
		c0.29,1.02,0.1,2.1-0.51,2.96c-0.58,0.82-1.49,1.33-2.48,1.4l-6.73,0.44C379.79,157.05,379.71,157.05,379.63,157.05z"/>
</g>
<g>
	<path class="st6" d="M365.44,171.33c0,0-6.78-3.2-3.04-5.57c3.18-2.01,18.56,2.21,19.77,3.79c1.36,1.78-4.07,3.78-4.07,3.78
		s7.69,0.8,7.46,3.56c-0.23,2.77-6.56,2.41-6.56,2.41s6.29-0.83,4.26,3c-2.03,3.83-16.01,3.96-17.6,1.99
		c-1.58-1.97-0.68-4.99-0.68-4.99s-2.26-1.16-2.6-4.13C362.05,172.2,365.44,171.33,365.44,171.33z"/>
</g>
<g>
	<path d="M376.63,172.68c-0.03,0-11.22-0.94-11.22-0.94c-0.22-0.02-0.39-0.22-0.37-0.44c0.02-0.22,0.2-0.4,0.44-0.37l11.19,0.94
		c0.22,0.02,0.39,0.22,0.37,0.44C377.02,172.52,376.84,172.68,376.63,172.68z"/>
</g>
<g>
	<path d="M379,179.84c0,0-11.99-0.13-11.99-0.13c-0.22,0-0.4-0.19-0.4-0.41c0-0.22,0.18-0.4,0.41-0.4c0,0,11.99,0.13,11.99,0.13
		c0.22,0,0.4,0.19,0.4,0.41C379.41,179.66,379.23,179.84,379,179.84z"/>
</g>
<g>
	<path class="st8" d="M431.46,154.27c-0.18,0-0.34-0.11-0.39-0.29c-0.06-0.21,0.06-0.44,0.27-0.5l12.4-3.67
		c0.68-0.95,5.14-6.84,9.82-5.77c0.35,0.08,1.42,0.33,1.46,1.12c0.08,1.65-5.77,3.77-8.29,4.61l-2.63,0.78
		c0,0-12.54,3.71-12.54,3.71C431.54,154.27,431.5,154.27,431.46,154.27z M452.43,144.73c-3.04,0-5.98,3.06-7.33,4.69l1.41-0.42
		c4.14-1.37,7.75-3.15,7.72-3.8c0-0.03-0.15-0.21-0.83-0.37C453.07,144.76,452.75,144.73,452.43,144.73z"/>
</g>
<g>
	<path d="M409.52,99.95c-0.19,0-0.36-0.13-0.4-0.33c-0.04-0.22,0.1-0.43,0.32-0.48c0.03,0,2.63-0.54,3.2-1.97
		c0.08-0.21,0.32-0.31,0.53-0.23c0.21,0.08,0.31,0.32,0.23,0.53c-0.74,1.84-3.68,2.44-3.8,2.47
		C409.57,99.95,409.54,99.95,409.52,99.95z"/>
</g>
<g>
	<polygon class="st8" points="388.75,64.09 398.55,85.7 375.29,67.54 	"/>
</g>
<g>
	<g>
		<path class="st4" d="M376.32,46.25c0-1.94-1.66-3.26-4.33-3.26c-2.56,0-4.43,0.97-5.65,2.67l-3.36-2.18
			c1.94-2.63,5.06-4.22,9.39-4.22c5.09,0,8.49,2.32,8.49,6.3c0,5.65-5.92,6.16-5.92,10.25h-4.4
			C370.54,50.68,376.32,49.71,376.32,46.25z M369.98,61.39c0-1.49,1.14-2.67,2.77-2.67c1.59,0,2.74,1.18,2.74,2.67
			c0,1.49-1.14,2.7-2.74,2.7C371.12,64.09,369.98,62.88,369.98,61.39z"/>
	</g>
</g>
<g>
	
		<ellipse transform="matrix(0.9219 -0.3874 0.3874 0.9219 -45.2374 211.3957)" class="st17" cx="501.82" cy="217.92" rx="19.85" ry="19.85"/>
</g>
<g>
	
		<ellipse transform="matrix(0.2224 -0.975 0.975 0.2224 147.3484 343.7557)" class="st17" cx="289.17" cy="79.51" rx="19.85" ry="19.85"/>
</g>
<g>
	<path class="st8" d="M507.32,205.51c-0.23-0.01-0.45,0.02-0.66,0.09c-0.21-0.11-0.44-0.21-0.68-0.27
		c-1.68-0.45-3.41,0.56-3.85,2.24l-0.72,2.71c-0.44,1.68,0.56,3.41,2.24,3.85c0.27,0.07,0.54,0.11,0.81,0.11
		c0.08,0,0.15-0.01,0.23-0.02c-0.67,3.69-1.73,6.34-2.86,8.22c-0.18-0.32-0.41-0.62-0.7-0.87c-1.33-1.13-3.32-0.97-4.44,0.36
		l-1.82,2.13c-1.13,1.33-0.97,3.32,0.36,4.44c0.14,0.12,0.28,0.22,0.43,0.31c0,0.13,0.02,0.25,0.05,0.38
		c0.2,0.87,0.98,1.46,1.84,1.46c0.14,0,0.29-0.02,0.43-0.05c0.43-0.1,10.57-2.7,11.17-23.14
		C509.18,206.41,508.36,205.53,507.32,205.51z"/>
</g>
<g>
	<path class="st8" d="M422.02,99.89c0,1.3,1.05,2.35,2.35,2.35c1.3,0,2.35-1.05,2.35-2.35c0-1.3-1.05-2.35-2.35-2.35
		C423.07,97.54,422.02,98.59,422.02,99.89z"/>
</g>
<g>
	<path class="st1" d="M414.28,118.09c0,0,3.74,7.15,2.82,13.82c-0.92,6.67-4.21,9.34-4.21,9.34s-2.53-7.2-2.24-10.55
		c0.29-3.35,1.85-14.39,1.85-14.39L414.28,118.09z"/>
</g>
<g>
	<path class="st1" d="M422.62,106.1c0,0,2.46,2.66,1.6,4.88c-2.33,6.01-8.49,8.35-13.22,7.1c-4.72-1.25-2.36-8.67-2.36-8.67
		l0.83-0.14c0,0-0.89,2.35,3.02,3.08C417.1,113.21,422.62,106.1,422.62,106.1z"/>
</g>
<g>
	<path class="st1" d="M413.74,117.33c0,0,2,7.83-2.44,13.94c-4.44,6.11-8.93,9.21-8.93,9.21s1.12-10.07,2.33-14.37
		C404.87,125.53,410.11,112.65,413.74,117.33z"/>
</g>
<g>
	<path class="st9" d="M407.67,128.4c-0.08,0-0.15-0.01-0.23-0.02c-0.33-0.05-0.58-0.25-0.72-0.55c-0.84-1.81,3.12-8.61,3.93-9.96
		c0.1-0.17,0.3-0.24,0.49-0.18c0.19,0.06,0.3,0.24,0.29,0.43c-0.07,0.85-0.78,8.33-2.84,9.93
		C408.29,128.28,407.99,128.4,407.67,128.4z M410.35,120.06c-1.65,3.01-3.28,6.56-2.88,7.42c0.02,0.05,0.04,0.07,0.1,0.07
		c0.1,0.02,0.27,0.02,0.49-0.15C409.22,126.5,409.98,122.75,410.35,120.06z"/>
</g>
<g>
	<path class="st21" d="M293.34,85.31h-12.86c-0.7,0-1.28-0.57-1.28-1.28v-9.05c0-0.71,0.57-1.28,1.28-1.28h12.86
		c0.71,0,1.28,0.57,1.28,1.28v9.05C294.62,84.74,294.05,85.31,293.34,85.31z"/>
</g>
<g>
	<path class="st21" d="M293.51,80.46c-0.57-0.42-0.57-1.49,0-1.91l2.81-2.1l2.81-2.1c0.57-0.42,1.28,0.11,1.28,0.95v4.19v4.19
		c0,0.85-0.71,1.38-1.28,0.95l-2.81-2.1L293.51,80.46z"/>
</g>
</svg>
